<svg xmlns="http://www.w3.org/2000/svg" width="206" height="218" fill="none"><style><![CDATA[.B{fill-rule:evenodd}]]></style><mask id="A" mask-type="alpha" maskUnits="userSpaceOnUse" x="0" y="0" width="206" height="218"><path d="M0 .597h205.86V217.5H0V.597z" fill="#fff" class="B"/></mask><g mask="url(#A)" class="B"><path d="M205.754 151.254c-.824 5.6.67 71.56-64.325 65.902-14.456-1.26-28.027-3.792-40.47-7.095-13.924-3.696-26.444-8.353-37.23-13.274-22.933-10.466-38.062-22.12-42.258-28.236C13.53 156.986-.876 137.69.215 109.5c0 0-2.36-15.247 8.562-24.584 0 0 5.086-3.623 18.08-4.192s12.377-1.5 6.54-12.315S-2.978 33.734 14.963 16.03s40.4-18.918 66.103-10.005 69.922 29.613 96.033 62.525 29.48 77.093 28.656 82.703z" fill="#e5edf9"/></g><g class="B"><g fill="#404042"><path d="M151 195.374c0 7.218-5 13.126-11.106 13.126H58.098C51.993 208.5 47 202.592 47 195.374V24.63c0-7.222 4.993-13.13 11.098-13.13h81.796C146 11.5 151 17.408 151 24.63v170.744z"/><path d="M126 11.5v4.695c0 4.017-2.597 7.305-5.766 7.305h-42.47c-3.17 0-5.763-3.288-5.763-7.305V11.5"/></g><path d="M144 188.374c0 6.67-4.376 12.126-9.717 12.126H62.71c-5.34 0-9.71-5.457-9.71-12.126V30.63c0-6.672 4.37-12.13 9.71-12.13h71.572c5.34 0 9.717 5.458 9.717 12.13v157.744z" fill="#fff"/><path d="M122 17.5v4.305c0 3.682-2.26 6.695-5.02 6.695H80.016c-2.76 0-5.016-3.013-5.016-6.695V17.5" fill="#404042"/></g><mask id="B" mask-type="alpha" maskUnits="userSpaceOnUse" x="73" y="99" width="55" height="31"><path d="M73.5 99.898h54V130h-54V99.898z" fill="#fff" class="B"/></mask><g mask="url(#B)" class="B"><path d="M102.676 119.314c-.612.477-1.394.715-2.178.715s-1.564-.238-2.175-.715L73.5 99.898v25.854c0 2.342 1.953 4.25 4.355 4.25h45.294c2.398 0 4.35-1.907 4.35-4.25V99.9l-24.824 19.414z" fill="url(#D)"/></g><mask id="C" mask-type="alpha" maskUnits="userSpaceOnUse" x="73" y="94" width="55" height="24"><path d="M73.863 94.593h53.275v22.914H73.863V94.593z" fill="#fff" class="B"/></mask><g mask="url(#C)" class="B"><path d="M74.206 97.308l25.737 20.038c.277.215.838.215 1.113-.001l25.74-20.037c.105-.082.223-.125.343-.17-.672-1.495-2.205-2.544-3.99-2.544H77.855c-1.787 0-3.322 1.05-3.993 2.544.12.046.237.09.343.17z" fill="url(#E)"/></g><defs><linearGradient id="D" x1="46.5" y1="114.949" x2="72.105" y2="160.881" gradientUnits="userSpaceOnUse"><stop stop-color="#fce38a"/><stop offset="1" stop-color="#ff4d00"/></linearGradient><linearGradient id="E" x1="47.225" y1="106.05" x2="63.859" y2="144.724" gradientUnits="userSpaceOnUse"><stop stop-color="#fce38a"/><stop offset="1" stop-color="#ff4d00"/></linearGradient></defs></svg>